<?xml version="1.0" encoding="UTF-8" standalone="no"?>
<svg
   xmlns:osb="http://www.openswatchbook.org/uri/2009/osb"
   xmlns:dc="http://purl.org/dc/elements/1.1/"
   xmlns:cc="http://creativecommons.org/ns#"
   xmlns:rdf="http://www.w3.org/1999/02/22-rdf-syntax-ns#"
   xmlns:svg="http://www.w3.org/2000/svg"
   xmlns="http://www.w3.org/2000/svg"
   xmlns:xlink="http://www.w3.org/1999/xlink"
   xmlns:sodipodi="http://sodipodi.sourceforge.net/DTD/sodipodi-0.dtd"
   xmlns:inkscape="http://www.inkscape.org/namespaces/inkscape"
   width="210mm"
   height="297mm"
   viewBox="0 0 210 297"
   version="1.1"
   id="svg8"
   inkscape:version="1.0.1 (3bc2e813f5, 2020-09-07)"
   sodipodi:docname="dessin.svg">
  <defs
     id="defs2">
    <inkscape:path-effect
       effect="powerstroke"
       id="path-effect981"
       is_visible="true"
       lpeversion="1"
       offset_points="4,0.070235855"
       sort_points="true"
       interpolator_type="CubicBezierJohan"
       interpolator_beta="0.2"
       start_linecap_type="zerowidth"
       linejoin_type="extrp_arc"
       miter_limit="4"
       scale_width="1"
       end_linecap_type="zerowidth" />
    <inkscape:path-effect
       effect="spiro"
       id="path-effect979"
       is_visible="true"
       lpeversion="1" />
    <inkscape:path-effect
       effect="powerstroke"
       id="path-effect969"
       is_visible="true"
       lpeversion="1"
       offset_points="4,0.070235855"
       sort_points="true"
       interpolator_type="CubicBezierJohan"
       interpolator_beta="0.2"
       start_linecap_type="zerowidth"
       linejoin_type="extrp_arc"
       miter_limit="4"
       scale_width="1"
       end_linecap_type="zerowidth" />
    <inkscape:path-effect
       effect="spiro"
       id="path-effect967"
       is_visible="true"
       lpeversion="1" />
    <inkscape:path-effect
       effect="powerstroke"
       id="path-effect946"
       is_visible="true"
       lpeversion="1"
       offset_points="4,0.1322915"
       sort_points="true"
       interpolator_type="CubicBezierJohan"
       interpolator_beta="0.2"
       start_linecap_type="zerowidth"
       linejoin_type="extrp_arc"
       miter_limit="4"
       scale_width="1"
       end_linecap_type="zerowidth" />
    <inkscape:path-effect
       effect="spiro"
       id="path-effect944"
       is_visible="true"
       lpeversion="1" />
    <inkscape:path-effect
       effect="powerstroke"
       id="path-effect934"
       is_visible="true"
       lpeversion="1"
       offset_points="4,0.1322915"
       sort_points="true"
       interpolator_type="CubicBezierJohan"
       interpolator_beta="0.2"
       start_linecap_type="zerowidth"
       linejoin_type="extrp_arc"
       miter_limit="4"
       scale_width="1"
       end_linecap_type="zerowidth" />
    <inkscape:path-effect
       effect="spiro"
       id="path-effect932"
       is_visible="true"
       lpeversion="1" />
    <inkscape:path-effect
       effect="powerstroke"
       id="path-effect911"
       is_visible="true"
       lpeversion="1"
       offset_points="4,0.070235855"
       sort_points="true"
       interpolator_type="CubicBezierJohan"
       interpolator_beta="0.2"
       start_linecap_type="zerowidth"
       linejoin_type="extrp_arc"
       miter_limit="4"
       scale_width="1"
       end_linecap_type="zerowidth" />
    <inkscape:path-effect
       effect="spiro"
       id="path-effect909"
       is_visible="true"
       lpeversion="1" />
    <linearGradient
       inkscape:collect="always"
       id="linearGradient2799">
      <stop
         style="stop-color:#000000;stop-opacity:1;"
         offset="0"
         id="stop2795" />
      <stop
         style="stop-color:#000000;stop-opacity:0;"
         offset="1"
         id="stop2797" />
    </linearGradient>
    <linearGradient
       inkscape:collect="always"
       id="linearGradient2791">
      <stop
         style="stop-color:#000000;stop-opacity:1;"
         offset="0"
         id="stop2787" />
      <stop
         style="stop-color:#000000;stop-opacity:0;"
         offset="1"
         id="stop2789" />
    </linearGradient>
    <linearGradient
       id="linearGradient3571"
       osb:paint="gradient">
      <stop
         style="stop-color:#e80000;stop-opacity:1;"
         offset="0"
         id="stop3567" />
      <stop
         style="stop-color:#000000;stop-opacity:0;"
         offset="1"
         id="stop3569" />
    </linearGradient>
    <linearGradient
       id="linearGradient3084"
       osb:paint="solid">
      <stop
         style="stop-color:#000000;stop-opacity:1;"
         offset="0"
         id="stop3082" />
    </linearGradient>
    <linearGradient
       id="linearGradient3044"
       osb:paint="solid">
      <stop
         style="stop-color:#ffffff;stop-opacity:1;"
         offset="0"
         id="stop3042" />
    </linearGradient>
    <linearGradient
       id="linearGradient913"
       osb:paint="solid">
      <stop
         style="stop-color:#000000;stop-opacity:1;"
         offset="0"
         id="stop911" />
    </linearGradient>
    <linearGradient
       inkscape:collect="always"
       xlink:href="#linearGradient913"
       id="linearGradient3092"
       x1="15.071135"
       y1="86.328056"
       x2="66.980606"
       y2="86.328056"
       gradientUnits="userSpaceOnUse"
       gradientTransform="matrix(3.4633532,0,0,3.9167546,-36.049305,-183.76204)" />
    <linearGradient
       inkscape:collect="always"
       xlink:href="#linearGradient2791"
       id="linearGradient2793"
       x1="98.129615"
       y1="582.76039"
       x2="703.42151"
       y2="582.76039"
       gradientUnits="userSpaceOnUse"
       gradientTransform="matrix(0.26458333,0,0,0.26458333,-0.13363477,0)" />
    <radialGradient
       inkscape:collect="always"
       xlink:href="#linearGradient2799"
       id="radialGradient2801"
       cx="184.14858"
       cy="626.67863"
       fx="184.14858"
       fy="626.67863"
       r="70.463754"
       gradientTransform="matrix(1,0,0,1.2312786,0,-144.93734)"
       gradientUnits="userSpaceOnUse" />
    <linearGradient
       inkscape:collect="always"
       xlink:href="#linearGradient2791"
       id="linearGradient2809"
       x1="113.68482"
       y1="626.67865"
       x2="254.61234"
       y2="626.67865"
       gradientUnits="userSpaceOnUse" />
    <filter
       inkscape:collect="always"
       style="color-interpolation-filters:sRGB"
       id="filter1153"
       x="-0.028228739"
       width="1.0564575"
       y="-0.051276924"
       height="1.1025538">
      <feGaussianBlur
         inkscape:collect="always"
         stdDeviation="0.095290901"
         id="feGaussianBlur1155" />
    </filter>
  </defs>
  <sodipodi:namedview
     id="base"
     pagecolor="#ffffff"
     bordercolor="#666666"
     borderopacity="1.0"
     inkscape:pageopacity="0.0"
     inkscape:pageshadow="2"
     inkscape:zoom="0.98994948"
     inkscape:cx="335.02711"
     inkscape:cy="467.89581"
     inkscape:document-units="mm"
     inkscape:current-layer="layer1"
     inkscape:document-rotation="0"
     showgrid="false"
     inkscape:snap-global="false"
     inkscape:window-width="1920"
     inkscape:window-height="1011"
     inkscape:window-x="-8"
     inkscape:window-y="-8"
     inkscape:window-maximized="1" />
  <metadata
     id="metadata5">
    <rdf:RDF>
      <cc:Work
         rdf:about="">
        <dc:format>image/svg+xml</dc:format>
        <dc:type
           rdf:resource="http://purl.org/dc/dcmitype/StillImage" />
        <dc:title />
      </cc:Work>
    </rdf:RDF>
  </metadata>
  <g
     inkscape:label="Calque 1"
     inkscape:groupmode="layer"
     id="layer1">
    <path
       id="rect80"
       style="fill:#ffffff;fill-opacity:1;stroke-width:0.186008"
       d="M 33.675961,199.86656 H 172.12158 v 29.4507 H 33.675961 Z" />
    <path
       id="rect26"
       style="fill:#0000ff;fill-rule:evenodd;stroke-width:0.0915824"
       d="m 66.067654,139.31742 c 14.8103,-99.313416 200.431356,16.80701 38.213646,-1.02575 72.40184,19.34394 3.69358,27.88696 -2.33621,24.0027 C 86.467063,197.9844 90.356518,264.65764 64.73268,161.06346 52.861814,149.09873 52.137928,150.52457 34.483081,140.36154 c -5.356393,-3.08341 20.013613,-5.03298 31.584573,-1.04412 z"
       sodipodi:nodetypes="ccccsc" />
    <ellipse
       style="fill:#ffffff;fill-opacity:1;stroke-width:0.0915824"
       id="path43"
       cx="120.13411"
       cy="116.85334"
       rx="7.3423576"
       ry="3.3849978" />
    <path
       style="fill:none;stroke:#000000;stroke-width:0.0915824px;stroke-linecap:butt;stroke-linejoin:miter;stroke-opacity:1"
       d="m 119.6335,116.13531 c 0.26679,0.85997 0.50144,1.02576 1.1681,1.02576"
       id="path45" />
    <path
       style="fill:#000000;fill-opacity:1;stroke-width:0.0915824"
       id="path47"
       d="m 119.28266,117.07581 c 0.24236,0.14199 0.97342,0.37238 0.95494,0.8052 -0.0947,0.0877 -0.036,0.054 -0.18528,0.072 0.66378,-0.48161 1.33401,-0.95004 1.99135,-1.44484 0.0508,-0.0382 -0.11093,0.0542 -0.16851,0.0727 -0.12978,0.0418 -0.26513,0.0537 -0.39775,0.0715 -0.36655,0.0272 -0.7356,0.0465 -1.10252,0.0197 0.0198,0.12067 -0.35127,-0.22426 -0.27778,-0.14063 0.0274,0.0312 0.11075,0.0708 0.0799,0.0966 -0.66333,0.55643 -1.36661,1.03725 -2.04992,1.55587 0.95152,0.79672 -0.42232,0.93858 2.34293,-1.37049 0.0191,-0.0159 -0.0216,-0.0516 -0.0238,-0.0798 -0.003,-0.0269 0.007,-0.0533 0.0112,-0.0799 0.20254,-0.20417 -0.0419,-0.4632 -0.20741,-0.54733 -0.15803,-0.0725 -0.082,-0.0363 -0.22824,-0.10812 0,0 -2.0745,1.68331 -2.0745,1.68331 v 0 c 0.15591,0.10621 0.0776,0.0667 0.23276,0.12421 0.0301,0.0156 0.058,0.0414 0.0905,0.0469 0.01,0.002 0.0615,-0.04 0.0252,-0.0649 -0.0522,-0.0358 -0.0311,0.33169 -0.0469,0.27748 0.0186,0.11203 0.003,0.37478 0.0868,0.32599 1.80455,-1.04657 2.8726,-0.93137 1.87752,-1.85968 -1.11481,0.65082 -3.25125,1.07202 -1.86473,1.90075 0.37321,0.0905 0.76065,0.0238 1.13901,0.0281 1.09327,-0.0738 2.8521,-0.51522 2.94524,-2.01432 -0.14902,-0.63189 -0.63592,-0.81524 -1.08776,-1.05501 0,0 -2.0622,1.68467 -2.0622,1.68467 z" />
    <ellipse
       style="fill:#0000ff;fill-opacity:1;stroke-width:0.0919471"
       id="path63"
       cx="148.39282"
       cy="165.97815"
       rx="10.351757"
       ry="3.9189119"
       transform="matrix(0.92287067,0.38511001,-0.26613892,0.96393468,0,0)" />
    <ellipse
       style="fill:#0000ff;fill-opacity:1;stroke-width:0.0918374"
       id="path63-5"
       cx="27.581089"
       cy="230.75986"
       rx="10.266216"
       ry="3.942122"
       transform="matrix(0.94797857,-0.31833414,0.21688953,0.97619615,0,0)" />
    <ellipse
       style="opacity:0.994;mix-blend-mode:multiply;fill:#ffffff;fill-opacity:1;fill-rule:evenodd;stroke:url(#linearGradient3092);stroke-width:11.2887;stroke-miterlimit:4;stroke-dasharray:none;stroke-opacity:1"
       id="path2844"
       cx="106.03777"
       cy="154.36377"
       rx="85.622513"
       ry="85.839989" />
    <path
       style="fill:#0000ff;fill-opacity:1;opacity:1;stroke:#000000;stroke-opacity:1;stroke-width:11.58425197;stroke-miterlimit:4;stroke-dasharray:none"
       d="M 362.58807,883.36353 C 261.40399,868.96421 177.54205,809.5513 132.11489,720.08227 75.373636,608.3301 93.528222,473.05257 177.70394,380.37892 258.10412,291.86194 381.1029,259.26968 494.73092,296.37301 c 65.21895,21.29614 120.86436,64.49063 159.95532,124.16451 9.88157,15.08462 24.42721,45.04275 30.55983,62.94089 22.19684,64.78192 22.42843,133.68373 0.66463,197.74236 -35.56522,104.6811 -126.91495,182.10924 -236.89406,200.7917 -19.05864,3.23754 -67.81633,3.99973 -86.42857,1.35106 z m 22.5,-44.68797 c 4.44864,-3.88513 3.02294,-8.54675 -5.09745,-16.66715 -8.35182,-8.35183 -26.17302,-17.80393 -39.185,-20.78315 -4.12321,-0.94406 -7.13771,-2.29738 -6.69891,-3.00738 1.68994,-2.73437 7.87669,-26.03655 14.18454,-53.42568 14.5975,-63.38324 22.3696,-91.78642 32.05703,-117.1526 l 4.36089,-11.41883 29.65374,-0.0633 c 21.8661,-0.0467 33.21784,-0.71885 43.22516,-2.55962 36.49988,-6.7139 58.08377,-16.38768 60.81137,-27.25535 4.26361,-16.98757 -23.92883,-33.71074 -94.3828,-55.98588 l -15.71429,-4.96833 10.86702,0.73787 c 5.97685,0.40583 21.67561,1.47107 34.88613,2.3672 36.56887,2.48064 102.75935,1.01779 123.53257,-2.73014 39.59185,-7.14323 61.14055,-18.9855 65.75943,-36.13869 8.77505,-32.58806 -44.92803,-77.61134 -121.4917,-101.8555 -54.8799,-17.37791 -111.54819,-19.96416 -156.41059,-7.13833 -59.6538,17.05458 -99.76617,63.20747 -113.59397,130.70007 -1.47227,7.18608 -2.94462,13.33335 -3.27189,13.6606 -0.32727,0.32728 -2.24616,-0.0327 -4.2642,-0.79997 -9.53755,-3.62617 -35.43813,-6.21701 -61.72708,-6.17457 -37.49773,0.0606 -57.23335,3.8948 -54.65338,10.61809 0.40552,1.05678 13.51129,8.9128 29.12392,17.45781 38.96038,21.32354 54.01708,31.55777 72.02696,48.95757 l 15.30007,14.78177 6.68831,26.76578 c 16.22907,64.94671 32.65276,120.23395 43.94436,147.93047 3.1441,7.712 5.49067,14.18618 5.21459,14.38707 -0.27609,0.20087 -4.03769,1.14757 -8.35912,2.10374 -12.02886,2.66157 -30.17484,12.03904 -36.19871,18.70674 -8.50572,9.41482 -6.26178,15.63502 6.48,17.96253 11.30333,2.06476 40.08983,-6.67775 52.06625,-15.81263 l 4.68768,-3.57545 6.72592,5.13403 c 20.19875,15.41804 50.3887,23.15744 59.45315,15.2412 z"
       id="path3302"
       transform="scale(0.26458333)" />
    <path
       style="opacity:1;fill:#0000ff;fill-opacity:1;stroke:#000000;stroke-width:16.5489;stroke-miterlimit:4;stroke-dasharray:none;stroke-opacity:1"
       d=""
       id="path3516"
       transform="scale(0.26458333)" />
    <path
       style="opacity:1;fill:#0000ff;fill-opacity:1;stroke:#000000;stroke-width:16.5489;stroke-miterlimit:4;stroke-dasharray:none;stroke-opacity:1"
       d=""
       id="path3518"
       transform="scale(0.26458333)" />
    <path
       style="opacity:1;fill:#0000ff;fill-opacity:1;stroke:#000000;stroke-width:11.7019;stroke-miterlimit:4;stroke-dasharray:none;stroke-opacity:1"
       d=""
       id="path3522"
       transform="scale(0.26458333)" />
    <path
       style="opacity:1;fill:url(#linearGradient2793);fill-opacity:1;fill-rule:nonzero;stroke:#000000;stroke-width:4.37856;stroke-miterlimit:4;stroke-dasharray:none;stroke-opacity:1"
       d="m 93.227908,231.58406 c -7.073815,-1.29696 -12.619561,-3.02527 -19.770275,-6.16133 -3.802893,-1.66782 -3.86897,-1.92961 -0.59173,-2.34433 2.528809,-0.32 6.934954,-1.83081 9.405081,-3.22486 l 1.962279,-1.10744 2.229467,1.48716 c 1.226206,0.81794 3.590178,2.02627 5.253275,2.68518 2.588869,1.0257 3.522853,1.20186 6.493291,1.22474 3.339434,0.0257 3.512984,-0.0149 4.630204,-1.08344 2.28368,-2.18416 1.25246,-5.00462 -2.99305,-8.18624 -2.444697,-1.83207 -4.764379,-3.05307 -7.500628,-3.94805 -1.127908,-0.36891 -1.910091,-0.83159 -1.813454,-1.07268 0.09346,-0.23317 1.222518,-4.76123 2.509017,-10.06234 4.256178,-17.53794 6.054392,-24.32111 7.865805,-29.67113 l 1.79164,-5.29167 8.6827,-0.22483 c 6.94155,-0.17974 9.40275,-0.38862 12.27346,-1.04163 7.71397,-1.75471 12.58426,-3.95601 14.25593,-6.44345 1.76713,-2.62949 0.7427,-5.98856 -2.64408,-8.66991 -1.71237,-1.3557 -7.00782,-4.10487 -10.66691,-5.53779 -1.45521,-0.56987 -2.67399,-1.05926 -2.70841,-1.08754 -0.0344,-0.0283 5.06827,-0.0688 11.33929,-0.09 15.59314,-0.0528 22.38343,-0.86883 29.44476,-3.53869 13.52776,-5.1148 12.20156,-16.70463 -3.11284,-27.20351 -8.81592,-6.04381 -20.79147,-10.72501 -33.07292,-12.928103 -4.23099,-0.758968 -6.12154,-0.879705 -13.60714,-0.868992 -7.53365,0.01079 -9.2095,0.124304 -12.56154,0.85091 -9.632206,2.087935 -17.063121,6.052595 -23.068377,12.307815 -6.010777,6.26096 -9.860827,13.66746 -12.12207,23.31972 -0.754835,3.22207 -0.278117,3.03642 -5.920632,2.30557 -4.161544,-0.53902 -17.54805,-0.56835 -21.160208,-0.0463 -3.281915,0.47427 -5.145539,1.36096 -5.812009,2.76529 -0.457443,0.96388 -0.433305,1.19073 0.219781,2.06547 0.403514,0.54047 4.461772,3.11579 9.01835,5.72294 10.467123,5.98901 13.389713,8.02168 17.950251,12.48443 l 3.669453,3.59077 2.144877,8.50447 c 3.784417,15.00529 8.021973,29.26307 10.913393,36.71946 l 0.974336,2.51262 -1.298364,0.24357 c -0.714099,0.13397 -2.821424,1.00602 -4.682937,1.9379 -4.683847,2.34474 -6.750034,4.70221 -6.520611,7.43987 0.03049,0.3638 -0.07013,0.65803 -0.223594,0.65385 -0.564282,-0.0154 -6.974895,-4.82762 -10.00656,-7.51159 -14.305928,-12.6652 -23.594578,-30.38475 -25.971812,-49.54529 -0.588753,-4.74535 -0.488132,-14.83028 0.196974,-19.74229 5.391328,-38.65418 38.376524,-67.601038 77.004619,-67.577024 20.82033,0.01294 40.22193,7.954825 54.88535,22.466858 10.3045,10.198106 17.29842,22.297096 20.81068,36.001016 3.14393,12.26678 3.28307,26.21941 0.37995,38.10194 -3.36431,13.77022 -9.95393,25.67228 -19.85082,35.85421 -9.16685,9.43087 -19.55301,15.98534 -31.77056,20.04968 -8.8858,2.956 -11.21961,3.31002 -22.86756,3.46887 -8.686631,0.11846 -10.767852,0.0361 -13.985122,-0.55383 z"
       id="path3526" />
    <path
       style="opacity:1;fill:#00ffff;fill-opacity:1;stroke:#000000;stroke-width:4.37856;stroke-miterlimit:4;stroke-dasharray:none;stroke-opacity:1"
       d="m 59.343678,213.92478 c -3.954795,-3.2137 -8.754046,-7.95803 -11.589426,-11.4568 -2.412816,-2.97733 -6.210387,-8.47837 -7.26274,-10.52056 l -0.633013,-1.22842 19.0765,-13.22917 c 0.606497,0.20624 -7.457972,12.69519 8.363531,11.86722 3.294891,-0.17243 0.885589,1.36195 0.885589,1.36195 l 1.356461,4.44122 c 0.746053,2.44267 2.050534,6.44876 2.898847,8.90241 0.848309,2.45366 1.4805,4.51884 1.404867,4.58929 -0.07563,0.0704 -1.318012,0.66079 -2.760835,1.31187 -3.153689,1.42312 -6.337264,3.7545 -7.260044,5.31664 -0.370687,0.62752 -0.849917,1.13208 -1.064951,1.12124 -0.215035,-0.0109 -1.751689,-1.12545 -3.414786,-2.47689 z"
       id="path3546"
       sodipodi:nodetypes="sssccscssssscs" />
    <path
       style="opacity:1;fill:#0054f5;fill-opacity:1;stroke:#000000;stroke-width:4.45234;stroke-miterlimit:4;stroke-dasharray:none;stroke-opacity:1"
       d="m 92.467445,228.87447 c -4.167345,-0.88681 -8.580714,-2.15235 -12.090884,-3.4671 l -2.667159,-0.99899 1.309452,-0.50072 c 0.720198,-0.2754 2.29314,-0.91945 3.495428,-1.43122 l 2.185974,-0.93048 1.656571,1.02658 c 6.287147,3.89615 15.079193,5.17577 18.412633,2.67984 3.62167,-2.71175 3.36449,-6.96777 -0.64926,-10.74493 -2.04049,-1.9202 -5.964184,-4.42673 -8.300907,-5.30278 -0.945975,-0.35465 -1.724183,-0.75006 -1.729351,-0.87868 -0.0052,-0.12864 0.994807,-4.21805 2.22216,-9.0876 l 2.231552,-8.85374 c 32.484316,-20.40821 8.621816,-2.65789 17.332456,1.88988 6.38801,3.33514 28.90056,-16.70319 25.74296,-9.72618 -6.89603,15.23737 27.67023,12.55924 33.16687,8.03305 0.39088,-0.32187 -4.19825,6.75867 -6.378,9.49857 -11.14496,14.00896 -25.69781,23.37639 -43.64036,28.09057 l -4.48389,1.17808 -12.21936,0.12213 c -10.825538,0.1082 -12.604635,0.0401 -15.596885,-0.59662 z"
       id="path3548"
       sodipodi:nodetypes="sscsscsssssscssssscsss" />
    <path
       style="opacity:0.64102564;fill:none;fill-opacity:1;stroke:none;stroke-width:16.5489;stroke-miterlimit:4;stroke-dasharray:none;stroke-opacity:1"
       d="m 579.99254,723.61322 c -15.73611,-1.19512 -27.28988,-4.73113 -33.50387,-10.25375 -5.66988,-5.03905 -6.23277,-9.09924 -2.7976,-20.17911 2.79085,-9.00159 0.98019,-14.62738 -5.39915,-16.77548 -6.0744,-2.0454 -11.00188,-0.32907 -27.35927,9.52966 -42.81514,25.80505 -56.66145,32.76961 -65.04908,32.71906 -8.02553,-0.0484 -8.15869,-4.02843 -0.74415,-22.24278 4.29023,-10.53928 3.99482,-16.35849 -1.01069,-19.90965 -7.0836,-5.02545 -17.85119,-0.84069 -52.38821,20.36033 -9.9473,6.10627 -18.23131,10.9589 -18.40894,10.78359 -0.61998,-0.61184 9.96614,-38.80571 15.9505,-57.54813 l 6.0323,-18.89256 14.40132,0.0839 c 49.43605,0.2865 92.21381,-9.234 112.38114,-25.00996 18.71275,-14.63815 14.1348,-40.34478 -9.93087,-55.76496 l -8.16386,-5.23102 33.18448,-1.51565 c 35.83169,-1.63656 50.70708,-3.62415 69.64917,-9.30626 30.33785,-9.10053 45.87152,-21.80449 51.12606,-41.81266 2.96938,-11.30675 1.19124,-22.13088 -5.89023,-35.85582 -19.22087,-37.25346 -83.01973,-74.98279 -154.20867,-91.19644 -27.31577,-6.22131 -38.93874,-7.245 -76.21861,-6.71294 -36.93182,0.52709 -49.01389,2.36953 -72.53391,11.06098 -54.25665,20.04969 -95.91472,68.26909 -109.25066,126.45814 -1.04221,4.54753 -2.29165,8.51011 -2.77652,8.80575 -0.48487,0.29564 -12.29524,-0.0557 -26.24527,-0.78082 -29.76759,-1.54727 -68.76975,-0.15554 -78.47806,2.80035 -8.33793,2.53865 -8.31038,2.72322 -2.24521,-15.04208 25.4061,-74.41621 79.89755,-135.34394 150.85507,-168.6734 75.08987,-35.27048 163.83736,-35.13074 240.37472,0.37847 60.5686,28.10056 114.24706,83.1098 140.77501,144.26507 23.43201,54.01817 30.03482,117.06165 18.22927,174.05299 -3.29945,15.92814 -13.26871,46.24876 -20.06269,61.01887 -3.9158,8.51297 -5.21022,10.01242 -10.70888,12.40523 -14.87375,6.47248 -44.58248,9.87993 -69.58464,7.98105 z"
       id="path3577"
       transform="scale(0.26458333)" />
    <path
       style="opacity:1;fill:url(#linearGradient2809);fill-opacity:1.0;stroke:url(#radialGradient2801);stroke-width:3.3222079;stroke-miterlimit:4;stroke-dasharray:none;stroke-opacity:0;stroke-dashoffset:0"
       d="m 140.73334,701.54034 c -19.46619,-43.24472 -28.11214,-91.94105 -24.63522,-138.75232 0.82777,-11.1445 1.897,-20.64999 2.37607,-21.12333 0.47908,-0.47334 4.59844,1.55554 9.15412,4.50862 4.55569,2.95308 19.83847,12.17437 33.96173,20.49177 32.28452,19.01283 40.99111,25.25799 57.07916,40.94233 11.98616,11.68539 13.03623,13.17193 14.6961,20.80453 0.98317,4.52097 5.79499,23.31679 10.69294,41.76849 4.89794,18.4517 8.89974,34.47774 8.8929,35.61342 -0.01,1.65948 -1.48372,1.86908 -7.50657,1.06759 -20.17462,-2.68468 -22.69188,-6.61918 -16.38449,-25.60905 3.91585,-11.78957 2.8818,-16.68991 -3.94435,-18.69223 -4.25196,-1.24722 -6.30691,-0.0499 -40.12428,23.38047 -19.60354,13.58225 -36.4484,25.16523 -37.43301,25.73994 -1.24164,0.72473 -3.33303,-2.38249 -6.8251,-10.14023 z"
       id="path3687"
       transform="scale(0.26458333)" />
    <path
       style="opacity:1;fill:#0000ff;fill-opacity:1;fill-rule:nonzero;stroke:#000000;stroke-width:0;stroke-opacity:0"
       id="path2813"
       d="m 104.77366,139.15636 c -5.3e-4,0.49043 0.0373,0.97794 0.0769,1.46638 0,0 2.45105,-1.27227 2.45105,-1.27227 v 0 c -0.0342,-0.48846 -0.0631,-0.97689 -0.0307,-1.46656 0,0 -2.49732,1.27245 -2.49732,1.27245 z" />
    <path
       style="opacity:1;fill:#0000ff;fill-opacity:1;fill-rule:nonzero;stroke:#000000;stroke-width:0;stroke-opacity:0"
       id="path2815"
       d="m 104.83579,137.84603 c 0.22287,0.62127 0.22504,1.25197 0.13883,1.8964 -0.0559,0.50478 -0.17868,0.9951 -0.27317,1.49264 0,0 2.51254,-1.21932 2.51254,-1.21932 v 0 c 0.10167,-0.49916 0.20223,-0.99743 0.24815,-1.50592 0.0623,-0.67898 0.0287,-1.34779 -0.16287,-2.00663 0,0 -2.46348,1.34283 -2.46348,1.34283 z" />
    <path
       style="opacity:1;fill:#0000ff;fill-opacity:1;fill-rule:nonzero;stroke:#000000;stroke-width:0;stroke-opacity:0"
       id="path2817"
       d="m 104.1101,139.01122 c 0.1912,0.51692 0.26917,1.06483 0.34982,1.6071 0,0 2.43463,-1.28777 2.43463,-1.28777 v 0 c -0.0899,-0.56376 -0.1768,-1.13014 -0.33628,-1.67948 0,0 -2.44817,1.36015 -2.44817,1.36015 z" />
    <path
       style="opacity:1;fill:#0000ff;fill-opacity:1;fill-rule:nonzero;stroke:#000000;stroke-width:0;stroke-opacity:0"
       id="path2819"
       d="m 103.63795,137.81175 c 0.0935,0.59761 0.14218,1.20045 0.17216,1.80418 0.0129,0.29241 0.0169,0.58507 0.0207,0.8777 0,0 2.48072,-1.27097 2.48072,-1.27097 v 0 c -0.009,-0.29333 -0.0192,-0.58665 -0.0353,-0.8797 -0.0338,-0.6031 -0.0952,-1.20332 -0.13732,-1.80548 0,0 -2.50089,1.27427 -2.50089,1.27427 z" />
    <path
       style="opacity:1;fill:#0000ff;fill-opacity:1;fill-rule:nonzero;stroke:#000000;stroke-width:0;stroke-opacity:0"
       id="path2821"
       d="m 106.15846,139.22629 c -0.0385,0.0712 -0.0769,0.14235 -0.11535,0.21352 0,0 2.55174,-1.13212 2.55174,-1.13212 v 0 c 0.0448,-0.0687 0.0895,-0.13744 0.13429,-0.20616 0,0 -2.57068,1.12476 -2.57068,1.12476 z" />
    <path
       style="opacity:1;fill:#0000ff;fill-opacity:1;fill-rule:nonzero;stroke:#000000;stroke-width:0;stroke-opacity:0"
       id="path2823"
       d="m 106.81582,139.05916 c -0.001,0.0629 -0.0137,0.12479 -0.0238,0.18667 0,0 0.43949,-0.21522 0.43949,-0.21522 v 0 c 0.01,-0.0636 0.0202,-0.12718 0.0275,-0.19116 0,0 -0.44327,0.21971 -0.44327,0.21971 z" />
    <path
       style="opacity:1;fill:#0000ff;fill-opacity:1;fill-rule:nonzero;stroke:#000000;stroke-width:0;stroke-opacity:0"
       id="path2825"
       d="m 107.29386,138.82664 c 0.0172,0.11737 0.0225,0.23607 0.0264,0.3545 10e-4,0.0439 0.002,0.0878 0.002,0.13164 0,0 0.4398,-0.225 0.4398,-0.225 v 0 c -0.001,-0.0439 -0.002,-0.0879 -0.005,-0.13178 -0.006,-0.12004 -0.0155,-0.23992 -0.0249,-0.35975 0,0 -0.4386,0.23039 -0.4386,0.23039 z" />
    <path
       style="opacity:1;fill:#0000ff;fill-opacity:1;fill-rule:nonzero;stroke:#000000;stroke-width:0;stroke-opacity:0"
       id="path2827"
       d="m 107.49033,138.79819 c -0.11505,0.10147 -0.22532,0.20891 -0.31276,0.33541 -0.0601,0.0908 -0.0792,0.1974 -0.0993,0.3023 -0.0114,0.0496 -0.0234,0.0989 -0.0372,0.14791 0,0 0.44395,-0.21154 0.44395,-0.21154 v 0 c 0.0132,-0.0502 0.0256,-0.10051 0.0367,-0.1512 0.0215,-0.0993 0.0415,-0.19847 0.10446,-0.28161 0.0939,-0.12294 0.20518,-0.22926 0.32161,-0.33074 0,0 -0.45744,0.18947 -0.45744,0.18947 z" />
    <path
       style="opacity:1;fill:#0000ff;fill-opacity:1;fill-rule:nonzero;stroke:#000000;stroke-width:0;stroke-opacity:0"
       id="path2829"
       d="m 107.58375,138.65411 c -0.0391,0.12352 -0.0986,0.24005 -0.14392,0.36174 -0.0339,0.0891 -0.0462,0.18498 -0.0772,0.27469 -0.0247,0.0637 -0.0336,0.13097 -0.0384,0.19863 -0.003,0.0551 -0.003,0.11032 -0.003,0.1655 0,0 0.44136,-0.22471 0.44136,-0.22471 v 0 c 2.6e-4,-0.054 5.3e-4,-0.10806 0.005,-0.16192 0.007,-0.0646 0.0203,-0.12751 0.0416,-0.18894 0.0232,-0.0904 0.0439,-0.18159 0.0747,-0.26981 0.0475,-0.12504 0.11118,-0.24463 0.1439,-0.37459 0,0 -0.44419,0.21941 -0.44419,0.21941 z" />
    <path
       style="opacity:1;fill:#0000ff;fill-opacity:1;fill-rule:nonzero;stroke:#000000;stroke-width:0;stroke-opacity:0"
       id="path2831"
       d="m 107.50659,138.84925 c -0.05,0.0857 -0.071,0.18327 -0.10765,0.27418 -0.0177,0.0606 -0.042,0.11876 -0.0596,0.17931 -0.002,0.0609 -0.0349,0.1076 -0.0569,0.16174 -0.0119,0.0394 -0.007,0.0194 -0.0154,0.0601 0,0 0.44739,-0.2138 0.44739,-0.2138 v 0 c 0.0112,-0.036 0.005,-0.0183 0.0189,-0.053 0.0254,-0.0538 0.0433,-0.10808 0.055,-0.16647 0.0206,-0.0585 0.0371,-0.11821 0.0582,-0.17655 0.0306,-0.0938 0.0638,-0.18616 0.10897,-0.27424 0,0 -0.4489,0.20879 -0.4489,0.20879 z" />
    <path
       style="opacity:1;fill:#000000;fill-opacity:1;fill-rule:nonzero;stroke:#000000;stroke-width:0;stroke-opacity:0"
       id="path2833"
       d="m 107.45548,138.25597 c -0.0127,0.17955 -0.0443,0.35806 -0.0813,0.53412 -0.0383,0.14663 -0.0749,0.29366 -0.11779,0.439 -0.0241,0.082 -0.0468,0.16372 -0.0591,0.24842 -0.002,0.0568 -0.0214,0.1081 -0.0431,0.15951 0,0 0.44986,-0.20835 0.44986,-0.20835 v 0 c 0.02,-0.0545 0.0316,-0.11094 0.0372,-0.16874 0.0141,-0.0822 0.038,-0.16168 0.0595,-0.24212 0.0391,-0.14506 0.0707,-0.29204 0.10707,-0.4378 0.0362,-0.18167 0.0706,-0.36459 0.0891,-0.54898 0,0 -0.44146,0.22494 -0.44146,0.22494 z" />
    <path
       style="opacity:1;fill:#000000;fill-opacity:1;fill-rule:nonzero;stroke:#000000;stroke-width:0;stroke-opacity:0"
       id="path2835"
       d="m 108.67793,137.73596 c -0.24358,0.13099 -0.48942,0.23557 -0.65813,0.45446 -0.0449,0.0582 -0.0742,0.10829 -0.11323,0.17038 -0.0835,0.14686 -0.12613,0.30733 -0.14289,0.47411 -0.002,0.0219 -0.003,0.0439 -0.004,0.0658 0,0 0.43783,-0.21922 0.43783,-0.21922 v 0 c 0.002,-0.0212 0.003,-0.0424 0.005,-0.0637 0.0199,-0.15957 0.0615,-0.31332 0.14726,-0.45146 0.0553,-0.0837 0.11027,-0.16451 0.18338,-0.23416 0.13216,-0.12593 0.4787,-0.29818 -0.24339,0.11111 0,0 0.38895,-0.30739 0.38895,-0.30739 z" />
    <path
       style="opacity:1;fill:#000000;fill-opacity:1;fill-rule:nonzero;stroke:#000000;stroke-width:0;stroke-opacity:0"
       id="path2837"
       d="m 108.35414,138.31989 c -0.21663,0.29763 -0.41216,0.60782 -0.57356,0.93869 -0.0992,0.23627 -0.17739,0.48331 -0.20807,0.73834 7.9e-4,0.0174 0.001,0.0348 0.002,0.0522 0,0 0.43787,-0.22577 0.43787,-0.22577 v 0 c -7.9e-4,-0.0145 -0.002,-0.0289 -0.003,-0.0434 0.0231,-0.24764 0.10105,-0.48674 0.19744,-0.71491 0.16384,-0.33517 0.36342,-0.64978 0.59803,-0.94037 0,0 -0.4511,0.19518 -0.4511,0.19518 z" />
    <path
       style="opacity:1;fill:#000000;fill-opacity:1;fill-rule:nonzero;stroke:#000000;stroke-width:0;stroke-opacity:0"
       id="path2839"
       d="m 108.46383,138.03196 c -0.17557,0.2154 -0.32902,0.44648 -0.46697,0.68739 -0.094,0.1653 -0.18861,0.33075 -0.23576,0.51597 0,0 0.44109,-0.2109 0.44109,-0.2109 v 0 c 0.0463,-0.177 0.13522,-0.33718 0.22399,-0.49616 0.1432,-0.24483 0.30386,-0.47871 0.49379,-0.69011 0,0 -0.45614,0.19381 -0.45614,0.19381 z" />
    <path
       style="opacity:1;fill:#0000ff;fill-opacity:1;fill-rule:nonzero;stroke:#000000;stroke-width:0;stroke-opacity:0"
       id="path2841"
       d="m 108.43527,138.23492 c -0.12769,0.18211 -0.24493,0.37096 -0.35601,0.56357 -0.11871,0.18293 -0.1998,0.38304 -0.25272,0.59362 -0.0341,0.13033 -0.035,0.2644 -0.0358,0.39803 -5.3e-4,0.0837 -2.6e-4,0.16738 -5.3e-4,0.25106 0,0 0.43762,-0.2233 0.43762,-0.2233 v 0 c -10e-4,-0.083 -0.002,-0.16604 -0.002,-0.24907 0.002,-0.12974 0.008,-0.25991 0.0387,-0.3866 0.0524,-0.20474 0.13611,-0.39772 0.24874,-0.57699 0.11551,-0.19611 0.23892,-0.38723 0.37593,-0.56915 0,0 -0.45444,0.19883 -0.45444,0.19883 z" />
    <path
       style="opacity:1;fill:#0000ff;fill-opacity:1;fill-rule:nonzero;stroke:#000000;stroke-width:0;stroke-opacity:0"
       id="path2843"
       d="m 107.60604,137.94232 c -0.0764,0.20605 -0.16231,0.40862 -0.24823,0.61087 -0.14595,0.32414 -0.29972,0.64438 -0.4363,0.97269 -0.0581,0.14982 -0.0322,0.0773 -0.0785,0.21723 0,0 0.43686,-0.20556 0.43686,-0.20556 v 0 c 0.0432,-0.13524 0.0192,-0.0649 0.0727,-0.21066 0.13159,-0.32907 0.28696,-0.64715 0.4328,-0.96997 0.0913,-0.20682 0.18216,-0.41382 0.27114,-0.6216 0,0 -0.45046,0.207 -0.45046,0.207 z" />
    <path
       style="opacity:1;fill:#0000ff;fill-opacity:1;fill-rule:nonzero;stroke:#000000;stroke-width:0;stroke-opacity:0"
       id="path2845"
       d="m 107.70416,138.22623 c -0.0964,0.23699 -0.20894,0.4668 -0.30975,0.70192 -0.0814,0.19158 -0.1571,0.38467 -0.21608,0.58423 -0.0331,0.12715 -0.0534,0.25736 -0.0687,0.38773 -0.0157,0.11837 -0.0412,0.23482 -0.0645,0.35178 0,0 0.44283,-0.21494 0.44283,-0.21494 v 0 c 0.0226,-0.11741 0.0446,-0.23483 0.0602,-0.35344 0.0171,-0.12769 0.0376,-0.25553 0.0708,-0.38012 0.0566,-0.19557 0.12843,-0.38599 0.20728,-0.57367 0.10324,-0.23957 0.21846,-0.47347 0.32447,-0.71179 0,0 -0.44667,0.2083 -0.44667,0.2083 z" />
    <path
       style="opacity:1;fill:#000000;fill-opacity:1;fill-rule:nonzero;stroke:#000000;stroke-width:0;stroke-opacity:0"
       id="path2847"
       d="m 107.94714,137.59107 c -0.0802,0.26318 -0.17407,0.52226 -0.27376,0.77862 -0.11239,0.27789 -0.23302,0.553 -0.32378,0.83893 -0.0541,0.19186 -0.0954,0.38702 -0.13882,0.58154 -0.0365,0.17056 -0.0444,0.34486 -0.0503,0.51859 -0.004,0.12601 -0.005,0.25209 -0.005,0.37815 0.002,0.11321 0.004,0.22576 -0.0106,0.33814 -0.002,0.0148 -0.004,0.0296 -0.006,0.0445 0,0 0.44218,-0.21841 0.44218,-0.21841 v 0 c 0.002,-0.0149 0.003,-0.0298 0.005,-0.0447 0.0108,-0.11404 0.006,-0.22828 0.007,-0.3427 -2.2e-4,-0.12478 -0.002,-0.24957 0.001,-0.37434 0.006,-0.17102 0.016,-0.34238 0.0531,-0.50996 0.0424,-0.1925 0.0818,-0.3859 0.13623,-0.57546 0.0906,-0.28228 0.20225,-0.55723 0.31471,-0.83137 0.10319,-0.26347 0.20326,-0.52861 0.29286,-0.797 0,0 -0.44442,0.21551 -0.44442,0.21551 z" />
    <path
       style="opacity:1;fill:#000000;fill-opacity:1;fill-rule:nonzero;stroke:#000000;stroke-width:0;stroke-opacity:0"
       id="path2849"
       d="m 108.45471,138.2618 c -0.13658,0.12455 -0.26011,0.26194 -0.37223,0.40869 -0.09,0.13212 -0.17561,0.26675 -0.22027,0.42113 -0.0342,0.12577 -0.0366,0.25615 -0.0376,0.38553 -0.001,0.11528 -0.002,0.23057 -8e-4,0.34585 0.0349,0.35521 0.006,0.22952 0.50338,-0.0356 0.11933,-0.23227 0.25762,-0.45443 0.39165,-0.67843 0.10236,-0.17353 0.20982,-0.34711 0.26586,-0.54206 0.0185,-0.075 0.026,-0.15001 -0.005,-0.22197 -0.0109,-0.0144 -0.0347,-0.0548 -0.0622,-0.0404 -0.16879,0.0884 -0.33347,0.18579 -0.48948,0.29516 -0.0431,0.0302 -0.0698,0.0789 -0.10273,0.12 -0.14757,0.18436 -0.18101,0.24092 -0.32389,0.44668 -0.15859,0.23654 -0.30622,0.48023 -0.4733,0.71103 -0.026,0.0358 -0.0513,0.0724 -0.0807,0.1054 -0.01,0.011 -0.0495,0.0321 -0.0362,0.0257 0.15565,-0.0743 0.30907,-0.15313 0.4636,-0.22969 0.0774,-0.17699 0.16847,-0.34744 0.25303,-0.52107 0.0755,-0.17298 0.15467,-0.34396 0.2352,-0.51459 0.0367,-0.0607 0.0529,-0.1395 0.0995,-0.19462 0.006,-0.007 0.033,-0.0173 0.0247,-0.0131 -0.50043,0.25371 -0.39531,0.0773 -0.51334,0.34615 -0.0313,0.0631 -0.0616,0.12659 -0.0938,0.1892 -0.10675,0.20763 -0.17805,0.3331 -0.28972,0.54268 -0.12674,0.23784 -0.24889,0.47652 -0.38622,0.70844 -0.0236,0.0324 -0.10737,0.1134 -0.0708,0.0971 0.14034,-0.0627 0.26068,-0.16309 0.39313,-0.24114 0.0127,-0.007 0.0338,-0.002 0.0415,-0.015 0.0225,-0.0364 0.0279,-0.0809 0.0426,-0.12104 0.0597,-0.16325 0.0678,-0.17911 0.13497,-0.34559 0.11896,-0.28144 0.22812,-0.56676 0.33993,-0.85104 0.0106,-0.0169 0.0498,-0.0597 0.0319,-0.0507 -0.1446,0.0724 -0.28254,0.15768 -0.41898,0.24445 -0.0289,0.0184 -0.0462,0.13614 -0.05,0.15088 -0.0313,0.12029 -0.05,0.17916 -0.0858,0.29965 -0.0751,0.23586 -0.14073,0.47455 -0.20885,0.71245 -0.005,0.0123 -0.0288,0.042 -0.0163,0.0369 0.15688,-0.0636 0.3129,-0.13168 0.45937,-0.21656 0.0183,-0.0106 0.0113,-0.0408 0.0188,-0.0605 0.0424,-0.11212 0.0915,-0.22191 0.13439,-0.33396 0.0807,-0.2013 0.1599,-0.40332 0.22638,-0.60981 0.0425,-0.1366 0.1036,-0.26319 0.17535,-0.38651 0.13318,-0.21148 0.27486,-0.41747 0.42204,-0.61943 0.0787,-0.10634 0.14285,-0.2218 0.21269,-0.33376 0.0119,-0.019 0.0573,-0.0658 0.037,-0.0562 -0.16319,0.0769 -0.31571,0.17466 -0.47356,0.26199 -0.15194,0.25484 -0.28277,0.51892 -0.39607,0.79293 -0.10226,0.27311 -0.18411,0.5529 -0.26422,0.83306 -0.0444,0.14911 -0.0745,0.30126 -0.0969,0.45497 0.11898,0.29941 0.70169,-0.47302 0.77897,-0.57136 0.0437,-0.0556 0.0855,-0.11259 0.12824,-0.16888 0.0986,-0.14747 0.21481,-0.28345 0.31394,-0.43048 0.013,-0.0193 0.0553,-0.0691 0.0333,-0.0615 -0.47765,0.16453 -0.39761,0.10411 -0.5944,0.33872 -0.15134,0.17695 -0.29378,0.36179 -0.4499,0.53466 -0.0346,0.0383 -0.069,0.0773 -0.10797,0.11119 -0.0163,0.0142 -0.0758,0.0416 -0.0564,0.032 0.15272,-0.076 0.3044,-0.15413 0.4566,-0.2312 0.14617,-0.22856 0.282,-0.46229 0.39527,-0.70892 0.0825,-0.19369 0.1506,-0.39307 0.23178,-0.58738 0.0109,-0.008 0.0443,-0.0311 0.0325,-0.0244 -0.14094,0.0802 -0.28749,0.15201 -0.42028,0.24513 -0.0127,0.009 0.005,0.0309 0.004,0.0465 -7.9e-4,0.0309 -0.003,0.0619 -0.008,0.0925 -0.0135,0.0874 -0.0307,0.1389 -0.0546,0.22337 -0.006,0.0151 -0.0398,0.10806 -0.0505,0.13451 -0.002,0.005 -0.0128,0.0181 -0.008,0.0157 0.43839,-0.20176 0.4059,-0.0762 0.48649,-0.29951 0.0214,-0.0481 0.044,-0.0953 0.0657,-0.14321 0.006,-0.0139 0.0164,-0.0264 0.0198,-0.0412 0.002,-0.009 0.004,-0.0224 -0.004,-0.0279 -0.018,-0.0133 -0.0424,-0.0145 -0.0636,-0.0219 -0.68597,0.41088 -0.30758,0.15595 -0.58033,0.3647 -0.0307,0.0235 -0.12732,0.0876 -0.0932,0.0693 0.83165,-0.44607 0.36299,-0.16977 0.25768,-0.18112 0.0459,-0.0985 0.0961,-0.19523 0.15816,-0.28514 0.0805,-0.11431 0.17455,-0.21713 0.27364,-0.31539 0.0497,-0.0512 0.10582,-0.0967 0.16269,-0.13979 0.014,-0.0106 0.059,-0.0386 0.0437,-0.0298 -0.41124,0.23622 -0.27715,0.32835 -0.41802,0.22344 -0.0648,0.1078 -0.14559,0.20278 -0.22523,0.29966 -0.0164,0.0193 -0.0321,0.0391 -0.0491,0.0578 -0.0489,0.054 -0.10067,0.10398 -0.14594,0.16138 -0.0454,0.0575 -0.0865,0.11805 -0.12862,0.17796 -0.0848,0.11351 -0.17387,0.22336 -0.26451,0.33216 -0.007,0.009 -0.11746,0.14432 -0.13662,0.16014 -0.013,0.0107 -0.0309,0.0133 -0.0464,0.0199 0.14124,-0.0792 0.28739,-0.15013 0.42373,-0.23747 0.0117,-0.008 0.007,-0.027 0.0102,-0.0405 0.007,-0.0276 0.0132,-0.0555 0.0209,-0.0829 0.0282,-0.10033 0.065,-0.19552 0.10626,-0.29105 0.009,-0.0162 0.0175,-0.0324 0.0263,-0.0487 0.002,-0.002 0.007,-0.007 0.005,-0.006 -0.15661,0.0831 -0.321,0.15352 -0.46833,0.25217 -0.025,0.0167 -0.0223,0.0558 -0.0333,0.0837 -0.0748,0.18972 -0.0189,0.0512 -0.1006,0.25089 -0.0707,0.18568 -0.15321,0.37002 -0.17377,0.56931 -0.003,0.0455 -0.002,0.0911 5.3e-4,0.13666 0,0 0.43937,-0.22623 0.43937,-0.22623 v 0 c -0.002,-0.0428 -0.004,-0.0857 -2.6e-4,-0.12858 0.0208,-0.19193 0.0976,-0.37161 0.16643,-0.55037 0.0455,-0.10826 0.0617,-0.14839 0.10871,-0.25404 0.0131,-0.0295 0.072,-0.0944 0.0403,-0.0882 -0.4599,0.0894 -0.37905,0.0325 -0.44985,0.21247 -0.0381,0.098 -0.0758,0.19634 -0.10365,0.29792 -0.008,0.0309 -0.0186,0.0616 -0.0219,0.0934 -0.003,0.0259 -0.0213,0.0846 0.004,0.078 0.16158,-0.0421 0.30652,-0.13254 0.45978,-0.19882 0.0617,-0.0558 0.11036,-0.12392 0.16266,-0.18845 0.0898,-0.11082 0.17896,-0.22211 0.26526,-0.3357 0.10415,-0.13888 0.21726,-0.26881 0.33301,-0.39801 0.0672,-0.0815 0.1705,-0.19311 0.20526,-0.2932 0.006,-0.0166 0.006,-0.0346 0.009,-0.0519 -0.009,-0.0173 -0.008,-0.0592 -0.026,-0.0519 -0.25463,0.10372 -0.46423,0.23261 -0.6508,0.42157 -0.0985,0.10123 -0.19263,0.20685 -0.27109,0.32473 -0.0442,0.0697 -0.13944,0.21827 -0.13811,0.30055 2.6e-4,0.0214 0.0106,0.0414 0.0158,0.0621 0.0143,0.009 0.0264,0.0239 0.043,0.0262 0.0216,0.003 0.0452,-0.001 0.0645,-0.0114 0.16787,-0.0891 0.33117,-0.18671 0.4938,-0.28506 0.0331,-0.02 0.0618,-0.0465 0.0928,-0.0697 0.032,-0.0238 0.13196,-0.0887 0.0962,-0.0712 -0.11903,0.0583 -0.23136,0.12944 -0.34704,0.19417 0.002,-0.0197 0.005,-0.0394 0.006,-0.0591 1e-4,-0.001 -0.001,0.002 -0.002,0.004 -0.006,0.0137 -0.0119,0.0275 -0.0181,0.0411 -0.0148,0.0328 -0.0311,0.0649 -0.0457,0.0978 -0.007,0.0159 -0.0135,0.032 -0.0203,0.0481 -0.006,0.0143 -0.0118,0.0287 -0.0182,0.0429 -0.005,0.0114 -0.028,0.0383 -0.0163,0.0339 0.47232,-0.17879 0.40573,-0.0667 0.48743,-0.34171 0.0278,-0.10882 0.0653,-0.22412 0.0618,-0.33796 -0.009,-0.27885 -0.40775,-0.0201 -0.49079,0.16585 -0.074,0.19478 -0.14736,0.38992 -0.22676,0.58253 -0.0582,0.12883 -0.12047,0.25321 -0.19311,0.37471 -0.052,0.087 -0.11115,0.16952 -0.16236,0.25693 -0.0181,0.0309 -0.0328,0.0636 -0.0492,0.0954 0.14838,-0.0554 0.29896,-0.10527 0.44516,-0.1662 0.0158,-0.007 0.026,-0.0225 0.0377,-0.035 0.0326,-0.0351 0.0637,-0.0715 0.0948,-0.1078 0.1536,-0.17915 0.30115,-0.36356 0.46135,-0.53701 0.0402,-0.0386 0.17546,-0.12431 0.12046,-0.11569 -0.14474,0.0227 -0.27721,0.0969 -0.40901,0.16093 -0.0162,0.008 -0.0134,0.0337 -0.0231,0.0489 -0.0932,0.14649 -0.20533,0.2812 -0.30323,0.4244 -0.13167,0.1688 -0.12375,0.16319 -0.26094,0.32173 -0.0365,0.0422 -0.0731,0.0843 -0.11125,0.12497 -0.18266,0.19462 -0.10572,0.0585 0.33369,-0.10831 0.0143,-0.14956 0.0474,-0.29641 0.0859,-0.44147 0.0755,-0.27898 0.1604,-0.55554 0.26273,-0.82597 0.0485,-0.1167 0.0697,-0.17228 0.12539,-0.2869 0.0855,-0.17583 0.18992,-0.34092 0.28515,-0.51139 -0.13969,0.0464 -0.28391,0.0808 -0.41906,0.13913 -0.02,0.009 -0.0224,0.0373 -0.0335,0.0561 -0.0659,0.11109 -0.13274,0.22151 -0.20765,0.32686 -0.14656,0.20556 -0.29081,0.41304 -0.42583,0.62639 -0.0723,0.12596 -0.13355,0.25579 -0.17183,0.39651 -0.0637,0.2046 -0.14278,0.40376 -0.22017,0.60347 -0.0507,0.12813 -0.0443,0.11633 -0.10069,0.24099 -0.0147,0.0325 -0.0295,0.0649 -0.0453,0.0969 -0.009,0.0191 -0.0506,0.0631 -0.0304,0.0563 0.44366,-0.14707 0.40653,-0.041 0.45414,-0.23155 0.0558,-0.23714 0.12309,-0.47147 0.19531,-0.7041 0.0213,-0.0703 0.0705,-0.23209 0.0912,-0.30418 0.0118,-0.0412 0.0282,-0.0815 0.0342,-0.12394 0.005,-0.0328 0.0287,-0.10903 -0.003,-0.0993 -0.1597,0.0491 -0.3003,0.14778 -0.44215,0.23605 -0.0163,0.0101 -0.0149,0.0353 -0.0224,0.053 -0.10087,0.28376 -0.21024,0.56441 -0.3253,0.84272 -0.0412,0.0996 -0.1039,0.25004 -0.14427,0.35167 -0.0174,0.0438 -0.0435,0.0854 -0.0509,0.13189 -0.006,0.0377 -0.0242,0.12604 0.0121,0.11395 0.37336,-0.12466 0.36868,-0.15068 0.48976,-0.35678 0.12441,-0.23196 0.24039,-0.46819 0.36545,-0.69982 0.0857,-0.15869 0.21867,-0.39112 0.30752,-0.5517 0.0363,-0.0656 0.0717,-0.13174 0.10755,-0.19761 0.02,-0.0405 0.10505,-0.12658 0.0601,-0.12166 -0.43218,0.0472 -0.4245,0.11557 -0.54871,0.3829 -0.0803,0.17002 -0.15434,0.34267 -0.2335,0.51322 -0.086,0.17755 -0.17736,0.35239 -0.26124,0.53097 0.14738,-0.0563 0.29704,-0.10691 0.44214,-0.16882 0.0102,-0.004 0.0124,-0.0184 0.0185,-0.0277 0.0218,-0.0332 0.0434,-0.0665 0.0651,-0.0998 0.15223,-0.23479 0.29928,-0.47295 0.45843,-0.7032 0.14177,-0.19325 0.19752,-0.28025 0.35083,-0.45189 0.0371,-0.0416 0.1715,-0.13411 0.11788,-0.11876 -0.12879,0.0369 -0.23405,0.13103 -0.35582,0.18691 -0.01,0.004 0.004,-0.0229 0.012,-0.0291 0.004,-0.003 0.008,0.008 0.0116,0.0119 0.0252,0.0609 0.009,0.12743 -0.005,0.18924 -0.0561,0.18648 -0.15523,0.35531 -0.25278,0.52266 -0.0851,0.14243 -0.17073,0.28448 -0.25732,0.42602 -0.0416,0.0679 -0.0798,0.13801 -0.12468,0.20382 -0.0111,0.0163 -0.0249,0.0307 -0.0373,0.046 0.13955,-0.0682 0.27866,-0.13734 0.41865,-0.20465 0.002,-0.001 -0.004,0.008 -0.005,0.006 -0.004,-0.0126 -0.004,-0.0261 -0.006,-0.0392 -0.006,-0.046 -0.0111,-0.0921 -0.0146,-0.13837 -2.6e-4,-0.11448 -0.003,-0.22895 -0.002,-0.34343 0.004,-0.12531 0.008,-0.25177 0.0438,-0.37282 0.051,-0.1463 0.13262,-0.27825 0.22306,-0.40359 0.11551,-0.14633 0.24194,-0.28426 0.38566,-0.40359 0,0 -0.4584,0.18577 -0.4584,0.18577 z" />
    <path
       style="opacity:1;fill:#000000;fill-opacity:1;fill-rule:nonzero;stroke:#000000;stroke-width:0;stroke-opacity:0"
       id="path2851"
       d="m 107.79527,140.76573 c 0.14416,-0.1291 0.29275,-0.2532 0.43742,-0.38172 0,0 -0.44731,0.18213 -0.44731,0.18213 v 0 c -0.14813,0.1309 -0.30029,0.25723 -0.44755,0.38907 0,0 0.45744,-0.18948 0.45744,-0.18948 z" />
    <path
       style="opacity:1;fill:#000000;fill-opacity:1;fill-rule:nonzero;stroke:#000000;stroke-width:0;stroke-opacity:0"
       id="path2853"
       d="m 107.64124,140.76797 c 0.0961,0.0231 0.0457,0.0118 0.15109,0.0335 0,0 0.39944,-0.27782 0.39944,-0.27782 v 0 c -0.10002,-0.0213 -0.053,-0.01 -0.14139,-0.0333 0,0 -0.40914,0.2776 -0.40914,0.2776 z" />
    <path
       style="opacity:1;fill:#000000;fill-opacity:1;fill-rule:nonzero;stroke:#000000;stroke-width:0;stroke-opacity:0"
       id="path2855"
       d="m 108.06775,140.31266 c -0.0439,0.0209 -0.0707,0.0326 -0.11299,0.0575 -0.15675,0.0923 -0.31312,0.18517 -0.46903,0.27885 -0.22516,0.13527 0.12579,-0.0382 0.44122,-0.16781 0.0222,-0.0146 0.0447,-0.0288 0.0666,-0.0439 0.0931,-0.064 0.0887,-0.0661 0.18538,-0.12848 0.0289,-0.0187 0.11756,-0.0716 0.0881,-0.0538 -0.37547,0.2264 -0.22664,0.24491 -0.38921,0.21975 -0.0304,0.0348 -0.052,0.0767 -0.083,0.11098 -0.0141,0.0156 -0.0657,0.0518 -0.0474,0.0415 0.13514,-0.0758 0.26428,-0.16201 0.39891,-0.23876 0.006,-0.003 0.0165,0.005 0.0202,-1.5e-4 0.0116,-0.0176 0.013,-0.0401 0.0195,-0.0601 0.10549,-0.27623 0.25129,-0.31737 -0.38232,0.0469 -0.0204,0.0117 -0.0211,0.0419 -0.0328,0.0623 -0.0162,0.0283 -0.0337,0.0558 -0.0506,0.0837 -0.0119,0.0199 -0.085,0.14502 -0.103,0.16721 -0.0123,0.0152 -0.0613,0.0481 -0.0443,0.0385 0.39502,-0.22384 0.41461,-0.38946 0.39365,-0.22923 0,0 -0.42119,0.2644 -0.42119,0.2644 v 0 c 0.0109,0.0117 0.0183,0.0417 0.0328,0.035 0.41432,-0.19333 0.41651,-0.1863 0.58425,-0.47127 0.0181,-0.0289 0.0362,-0.0579 0.0543,-0.0868 0.0136,-0.0218 0.0655,-0.0724 0.0409,-0.0653 -0.4502,0.13064 -0.40697,0.0821 -0.51285,0.36448 -0.006,0.0255 -0.0191,0.0502 -0.0183,0.0764 0.01,0.3115 0.56082,-0.18394 0.58997,-0.37019 -0.009,-0.022 -0.006,-0.0744 -0.0283,-0.0661 -0.30228,0.11202 -0.55383,0.3122 -0.82141,0.48294 0.14304,-0.053 0.28635,-0.10534 0.42913,-0.15908 0.0176,-0.007 0.0623,-0.0418 0.0459,-0.0327 -0.12346,0.068 -0.24493,0.13966 -0.36789,0.20862 -0.0353,0.0198 0.13184,-0.0802 0.10643,-0.0586 0,0 0.38729,-0.30692 0.38729,-0.30692 z" />
    <path
       style="opacity:1;fill:#000000;fill-opacity:1;fill-rule:nonzero;stroke:#000000;stroke-width:0;stroke-opacity:0"
       id="path2857"
       d="m 107.85783,139.03205 c -0.0902,0.0974 -0.15703,0.20832 -0.1989,0.33382 -0.037,0.13099 -0.0331,0.26878 -0.0344,0.40366 -5.3e-4,0.14248 -2.6e-4,0.28495 -7e-5,0.42743 -5.3e-4,0.10238 -0.001,0.20476 -7.9e-4,0.30715 7.9e-4,0.0862 0.003,0.17131 -0.0121,0.2563 -0.002,0.0112 -0.004,0.0225 -0.006,0.0337 0,0 0.44472,-0.21747 0.44472,-0.21747 v 0 c 0.002,-0.0114 0.004,-0.0227 0.005,-0.0341 0.011,-0.087 0.006,-0.17461 0.007,-0.26214 1.5e-4,-0.10199 -7.9e-4,-0.20396 -0.002,-0.30594 -10e-4,-0.14187 -0.003,-0.28375 -0.002,-0.42563 0.002,-0.13089 0.003,-0.26456 0.044,-0.39022 0.0473,-0.12027 0.11779,-0.22676 0.21207,-0.31605 0,0 -0.45743,0.18947 -0.45743,0.18947 z" />
    <path
       style="opacity:0.68;fill:#00ffff;fill-opacity:1;fill-rule:nonzero;stroke:#000000;stroke-width:0;stroke-opacity:0"
       d="m 359.20564,833.14598 c -10.09004,-2.86438 -20.03108,-7.89574 -30.6119,-15.49331 -5.05499,-3.62974 -9.51192,-6.59952 -9.90431,-6.59952 -0.39238,0 -3.02825,1.76751 -5.8575,3.9278 -11.25854,8.59653 -29.24909,15.19618 -43.52987,15.96848 -6.88816,0.37252 -9.5497,0.14466 -10.98263,-0.94022 -1.81231,-1.37211 -1.75599,-1.58593 1.34933,-5.12269 6.07922,-6.92385 21.51776,-14.74458 36.18454,-18.33008 6.1759,-1.50978 7.59624,-2.2589 8.83883,-4.66181 0.81428,-1.57464 1.4805,-3.53348 1.4805,-4.35298 0,-0.8195 -2.67868,-8.47657 -5.95262,-17.0157 C 287.2461,746.68726 267.0976,677.46482 252.56012,616.78509 l -2.37547,-9.91523 -12.21403,-11.88603 c -21.78513,-21.2001 -33.16248,-29.25882 -72.20919,-51.14675 -13.61181,-7.63019 -25.36114,-14.44169 -26.10962,-15.13666 -2.65453,-2.46475 14.3476,-4.00372 43.78729,-3.96344 28.53462,0.039 41.56311,1.11586 55.89892,4.62013 13.75088,3.36129 14.4245,2.742 18.82787,-17.30911 3.97452,-18.09835 8.7215,-31.94833 16.09935,-46.9721 23.39605,-47.64221 62.9986,-75.56118 118.82116,-83.76644 63.81435,-9.37996 144.44182,9.64498 201.98986,47.66172 15.42989,10.19312 33.34348,27.90953 38.33758,37.91558 3.58594,7.18469 4.89374,14.79506 3.66658,21.33641 -0.98179,5.23337 -9.22097,13.71154 -17.60809,18.11886 -13.5285,7.10902 -34.4538,12.5886 -57.24826,14.99126 -19.04949,2.00791 -103.44655,1.69976 -131.22145,-0.47912 -25.63744,-2.01119 -24.97789,-2.19389 -26.23286,7.26645 l -0.71436,5.38521 2.69364,-0.67607 c 3.01342,-0.75632 36.83696,10.03005 59.0277,18.82402 28.46746,11.28137 46.46701,23.28148 46.46701,30.97906 0,8.5058 -17.52998,16.83148 -49.40097,23.46246 -14.22894,2.96043 -15.93045,3.08762 -48.73321,3.64278 l -33.9895,0.57524 -3.79056,10.2138 c -10.86998,29.28946 -17.52612,52.53287 -29.24881,102.13768 -9.03339,38.225 -13.96327,57.9968 -16.8753,67.68023 -1.16953,3.88908 -2.07952,7.91742 -2.02218,8.95187 0.19012,3.4304 3.42921,5.62994 12.22191,8.29941 15.63004,4.7453 33.05587,15.00628 38.52256,22.68354 1.87441,2.63238 2.03117,3.36473 0.8767,4.09579 -2.39742,1.51814 -13.18857,0.87395 -20.59875,-1.22966 z m 113.1245,-381.54194 c 6.89057,-3.12401 9.60904,-5.88159 9.60904,-9.74725 0,-6.22791 -7.2553,-10.74437 -20.59015,-12.8175 -18.25418,-2.83791 -37.67814,5.07494 -35.25004,14.36001 0.84395,3.22722 6.00987,7.1434 12.02825,9.11837 8.61732,2.82781 27.03567,2.33582 34.2029,-0.91363 z"
       id="path2859"
       transform="scale(0.26458333)" />
    <path
       style="opacity:0.50322581;fill:#585858;fill-opacity:0.43495932;fill-rule:nonzero;stroke:#000000;stroke-width:0;stroke-opacity:0"
       d="m 361.22595,833.80018 c -12.30663,-3.3227 -20.38173,-7.3879 -33.72588,-16.97839 -5.83229,-4.1917 -8.87175,-5.80295 -9.75485,-5.17116 -13.35798,9.55672 -22.21034,13.83097 -36.25904,17.5072 -9.41115,2.46269 -20.47901,2.77264 -23.35526,0.65407 -1.87685,-1.38245 -1.74207,-1.65574 3.14631,-6.38016 5.93245,-5.73347 20.77028,-13.3936 30.75327,-15.87657 3.61129,-0.89821 7.75709,-2.10032 9.21287,-2.67137 2.49295,-0.97788 4.92926,-4.56484 4.92926,-7.25729 0,-0.66537 -3.15148,-9.62171 -7.00329,-19.90299 -12.43125,-33.18156 -26.18143,-79.79049 -41.12652,-139.40645 l -7.72365,-30.80966 -7.68114,-7.90082 c -22.04387,-22.67434 -37.08006,-33.50328 -79.56497,-57.30203 -12.13321,-6.79665 -22.67931,-12.84604 -23.4358,-13.44308 -2.07602,-1.63849 2.09001,-2.44796 19.54596,-3.79788 26.41023,-2.04238 66.34355,0.25464 82.30991,4.73457 7.17622,2.01355 10.62305,1.3624 12.4923,-2.35998 0.7632,-1.51981 2.62176,-8.44539 4.13013,-15.39019 3.83631,-17.66305 8.658,-31.67996 16.15797,-46.9721 8.25982,-16.84142 16.72243,-28.76545 29.43738,-41.47797 23.43374,-23.42926 51.12527,-36.46393 90.345,-42.52626 15.75582,-2.43544 50.93782,-2.43087 68.69037,0.009 48.39395,6.65093 95.49145,23.58481 131.31983,47.21597 16.67748,10.99988 34.38597,28.35594 39.40651,38.62224 6.17049,12.61777 5.53697,22.00926 -2.04424,30.30431 -8.1777,8.9477 -23.81129,15.85327 -46.95872,20.74228 -16.53479,3.49235 -28.23341,4.3004 -70.71068,4.88414 -37.89655,0.52078 -70.93922,-0.58982 -99.06687,-3.32975 -5.65255,-0.55061 -6.25405,-0.4117 -7.68045,1.77379 -0.85119,1.30415 -1.876,4.57404 -2.27736,7.26646 l -0.72977,4.89528 2.86821,-0.62997 c 3.19777,-0.70235 36.57117,9.93247 58.7867,18.73305 28.38584,11.24492 46.58431,23.38436 46.58431,31.07445 0,8.57001 -17.31647,16.78525 -49.49558,23.48158 -14.11332,2.93692 -15.89073,3.06943 -48.59681,3.62306 l -33.9477,0.57463 -5.09893,13.74995 c -10.48373,28.27072 -16.74866,50.89004 -32.06393,115.76582 -3.67117,15.55112 -8.46809,34.79374 -10.65983,42.76138 -2.19174,7.96764 -3.98498,15.4365 -3.98498,16.59749 0,3.58746 2.97072,5.66579 12.00914,8.40169 19.79018,5.99043 45.05697,23.20146 39.3604,26.81122 -2.04752,1.29745 -12.80168,0.94971 -18.53958,-0.59948 z m 111.4064,-382.3272 c 9.80953,-4.28932 12.05479,-10.5441 5.76679,-16.06502 -5.23498,-4.59637 -13.22142,-6.67267 -25.24931,-6.56426 -16.0875,0.145 -26.76904,5.29539 -26.76904,12.90739 0,4.39353 4.4335,8.32382 12.35073,10.94891 7.98368,2.64713 26.58012,1.97404 33.90083,-1.22702 z"
       id="path2861"
       transform="scale(0.26458333)" />
    <path
       style="opacity:0.503226;fill:#0054f5;fill-opacity:1;fill-rule:nonzero;stroke:#000000;stroke-width:0;stroke-opacity:0"
       d="m 226.17549,798.53919 c -11.31133,-9.53853 -33.56516,-32.17993 -41.31954,-42.03913 -9.48553,-12.06026 -22.93019,-32.4303 -21.98184,-33.30474 1.4672,-1.35286 44.86705,-31.34017 45.35781,-31.34017 0.25354,0 0.46099,1.96458 0.46099,4.36574 0,16.30663 14.91626,27.95914 35.79022,27.95914 h 5.38619 l 1.12835,4.48107 c 0.62059,2.46458 4.76567,15.59001 9.21129,29.16762 4.44562,13.5776 8.08295,25.1489 8.08295,25.714 0,0.5651 -1.03659,1.28762 -2.30352,1.6056 -3.86353,0.96968 -18.96812,10.50039 -25.11626,15.84788 l -5.80035,5.04499 z"
       id="path3007"
       transform="scale(0.26458333)" />
    <path
       style="opacity:0.503226;fill:#0054f5;fill-opacity:1;fill-rule:nonzero;stroke:#000000;stroke-width:0;stroke-opacity:0"
       d="m 226.1167,798.56156 c -11.54982,-9.63817 -31.14437,-29.34504 -39.30597,-39.53126 -9.72252,-12.13436 -24.93601,-34.91036 -23.94263,-35.8443 1.52011,-1.42914 44.75625,-31.33085 45.3026,-31.33085 0.28722,0 0.52221,1.87918 0.52221,4.17595 0,7.14133 2.13713,12.13873 7.55494,17.66622 6.31663,6.44452 13.83277,9.4647 25.43274,10.21953 l 8.23893,0.53613 1.72538,6.17698 c 0.94895,3.39734 5.08274,16.46327 9.18619,29.0354 4.10345,12.57213 7.44572,23.25449 7.42726,23.73858 -0.0185,0.4841 -3.67839,2.67012 -8.13318,4.85783 -4.4548,2.18771 -11.94069,7.05946 -16.6353,10.82612 l -8.53567,6.84845 z"
       id="path3009"
       transform="scale(0.26458333)" />
    <path
       style="opacity:0.503226;fill:#0054f5;fill-opacity:1;fill-rule:nonzero;stroke:#000000;stroke-width:0;stroke-opacity:0"
       d="m 230.21117,802.10101 c -14.55358,-11.52407 -36.77534,-34.15114 -47.75553,-48.62655 -5.73859,-7.56531 -20.22975,-28.82457 -20.22975,-29.67807 0,-0.51615 45.23649,-31.94124 45.97948,-31.94124 0.26815,0 0.49198,2.1592 0.49741,4.79823 0.0306,14.8995 13.44892,25.99269 32.97781,27.26347 l 8.23893,0.53613 1.66049,5.91794 c 0.91327,3.25487 5.04706,16.32917 9.1862,29.054 4.13913,12.72482 7.5257,23.58225 7.5257,24.12761 0,0.54535 -1.47735,1.57301 -3.28299,2.28368 -5.78461,2.27671 -15.1985,8.18347 -22.67592,14.22803 l -7.27109,5.87776 z"
       id="path3011"
       transform="scale(0.26458333)" />
    <path
       style="opacity:0.503226;fill:#f9f9f9;stroke:#000000;stroke-width:0;stroke-opacity:0"
       d="m 447.01958,447.2044 c -0.63839,-0.59378 -1.16071,-1.34117 -1.16071,-1.66087 0,-0.3197 1.72417,-1.97513 3.83149,-3.67873 3.12162,-2.52358 3.99012,-3.05763 4.68773,-2.88254 0.65988,0.16562 1.25285,-0.11953 2.5857,-1.2434 l 1.72946,-1.45831 1.42978,0.90258 c 1.96166,1.23834 2.69086,2.70415 2.1542,4.33026 -1.14291,3.46304 -4.78123,5.42965 -11.23979,6.0754 -1.375,0.13748 -2.58036,0.35014 -2.67857,0.47258 -0.0982,0.12244 -0.7009,-0.2632 -1.33929,-0.85697 z m 7.41072,-1.6148 c 0,-0.19643 -0.0709,-0.35715 -0.1575,-0.35715 -0.0866,0 -0.25682,0.16072 -0.37822,0.35715 -0.1214,0.19642 -0.0505,0.35714 0.1575,0.35714 0.20802,0 0.37822,-0.16072 0.37822,-0.35714 z"
       id="path71"
       transform="scale(0.26458333)" />
    <path
       style="opacity:0.503226;fill:none;stroke:#000000;stroke-width:0;stroke-opacity:0"
       d="m 444.59085,453.49534 c -12.94143,-2.36955 -20.3051,-8.51317 -17.44015,-14.55059 0.87753,-1.84926 4.15788,-4.62564 7.13389,-6.03787 5.94567,-2.82147 12.76892,-3.94688 22.05102,-3.63705 6.10794,0.20388 9.72283,0.77739 13.98754,2.21919 4.91602,1.66198 9.1595,4.61724 10.5535,7.34972 2.96813,5.81801 -3.86267,11.94641 -16.09941,14.44393 -1.60205,0.32698 -5.45141,0.60961 -9.63266,0.70725 -5.73594,0.13396 -7.59738,0.0467 -10.55373,-0.49458 z m 7.61636,-5.73663 c 4.21833,-0.50962 6.79304,-1.47821 8.60582,-3.23746 2.84617,-2.76211 2.62754,-5.87361 -0.54327,-7.73182 -1.70435,-0.99882 -1.67433,-1.00588 -3.76795,0.8855 -0.6837,0.61766 -1.43384,0.89062 -2.57864,0.93831 -1.24196,0.0517 -1.77401,0.27011 -2.30603,0.94646 -0.38037,0.48357 -1.91195,1.83512 -3.4035,3.00345 -1.98454,1.55448 -2.71192,2.3459 -2.71192,2.95069 0,0.99918 2.46434,3.40496 3.0211,2.94932 0.20447,-0.16734 1.86245,-0.48434 3.68439,-0.70445 z"
       id="path73"
       transform="scale(0.26458333)" />
    <path
       style="opacity:0.503226;fill:none;stroke:#000000;stroke-width:0;stroke-opacity:0"
       d="m 446.99255,446.90586 c -0.4271,-0.45462 -0.77654,-0.99981 -0.77654,-1.21153 0,-0.49049 3.82857,-4.04494 5.81068,-5.39465 0.83091,-0.56581 2.03896,-1.13099 2.68455,-1.25596 0.6456,-0.12497 1.81097,-0.73925 2.58972,-1.36508 1.31532,-1.05701 1.48178,-1.10261 2.34297,-0.64171 1.24805,0.66794 2.64351,2.37531 2.64351,3.2344 0,3.45121 -3.97137,6.10357 -10.60413,7.08218 -3.52786,0.5205 -3.80618,0.49394 -4.69076,-0.44765 z m 7.43775,-1.11662 c 0,-0.0866 -0.16072,-0.25682 -0.35715,-0.37822 -0.19642,-0.1214 -0.35714,-0.0505 -0.35714,0.1575 0,0.20802 0.16072,0.37822 0.35714,0.37822 0.19643,0 0.35715,-0.0709 0.35715,-0.1575 z"
       id="path75"
       transform="scale(0.26458333)" />
    <path
       style="opacity:0.503226;fill:none;stroke:#000000;stroke-width:0;stroke-opacity:0"
       d="m 446.99255,446.90586 c -0.4271,-0.45462 -0.77654,-0.99981 -0.77654,-1.21153 0,-0.49049 3.82857,-4.04494 5.81068,-5.39465 0.83091,-0.56581 2.03896,-1.13099 2.68455,-1.25596 0.6456,-0.12497 1.81097,-0.73925 2.58972,-1.36508 1.31532,-1.05701 1.48178,-1.10261 2.34297,-0.64171 1.24805,0.66794 2.64351,2.37531 2.64351,3.2344 0,3.45121 -3.97137,6.10357 -10.60413,7.08218 -3.52786,0.5205 -3.80618,0.49394 -4.69076,-0.44765 z m 7.43775,-1.11662 c 0,-0.0866 -0.16072,-0.25682 -0.35715,-0.37822 -0.19642,-0.1214 -0.35714,-0.0505 -0.35714,0.1575 0,0.20802 0.16072,0.37822 0.35714,0.37822 0.19643,0 0.35715,-0.0709 0.35715,-0.1575 z"
       id="path77"
       transform="scale(0.26458333)" />
    <path
       style="opacity:0.503226;fill:none;stroke:#000000;stroke-width:0;stroke-opacity:0"
       d="m 446.99255,446.90586 c -0.4271,-0.45462 -0.77654,-0.99981 -0.77654,-1.21153 0,-0.49049 3.82857,-4.04494 5.81068,-5.39465 0.83091,-0.56581 2.03896,-1.13099 2.68455,-1.25596 0.6456,-0.12497 1.81097,-0.73925 2.58972,-1.36508 1.31532,-1.05701 1.48178,-1.10261 2.34297,-0.64171 1.24805,0.66794 2.64351,2.37531 2.64351,3.2344 0,3.45121 -3.97137,6.10357 -10.60413,7.08218 -3.52786,0.5205 -3.80618,0.49394 -4.69076,-0.44765 z m 7.43775,-1.11662 c 0,-0.0866 -0.16072,-0.25682 -0.35715,-0.37822 -0.19642,-0.1214 -0.35714,-0.0505 -0.35714,0.1575 0,0.20802 0.16072,0.37822 0.35714,0.37822 0.19643,0 0.35715,-0.0709 0.35715,-0.1575 z"
       id="path79"
       transform="scale(0.26458333)" />
    <path
       style="opacity:0.503226;fill:none;stroke:#000000;stroke-width:0;stroke-opacity:0"
       d="m 446.99255,446.90586 c -0.4271,-0.45462 -0.77654,-0.99981 -0.77654,-1.21153 0,-0.49049 3.82857,-4.04494 5.81068,-5.39465 0.83091,-0.56581 2.03896,-1.13099 2.68455,-1.25596 0.6456,-0.12497 1.81097,-0.73925 2.58972,-1.36508 1.31532,-1.05701 1.48178,-1.10261 2.34297,-0.64171 1.24805,0.66794 2.64351,2.37531 2.64351,3.2344 0,3.45121 -3.97137,6.10357 -10.60413,7.08218 -3.52786,0.5205 -3.80618,0.49394 -4.69076,-0.44765 z m 7.43775,-1.11662 c 0,-0.0866 -0.16072,-0.25682 -0.35715,-0.37822 -0.19642,-0.1214 -0.35714,-0.0505 -0.35714,0.1575 0,0.20802 0.16072,0.37822 0.35714,0.37822 0.19643,0 0.35715,-0.0709 0.35715,-0.1575 z"
       id="path81"
       transform="scale(0.26458333)" />
    <path
       style="opacity:0.503226;fill:none;stroke:#000000;stroke-width:0;stroke-opacity:0"
       d="m 446.99255,446.90586 c -0.4271,-0.45462 -0.77654,-0.99981 -0.77654,-1.21153 0,-0.49049 3.82857,-4.04494 5.81068,-5.39465 0.83091,-0.56581 2.03896,-1.13099 2.68455,-1.25596 0.6456,-0.12497 1.81097,-0.73925 2.58972,-1.36508 1.31532,-1.05701 1.48178,-1.10261 2.34297,-0.64171 1.24805,0.66794 2.64351,2.37531 2.64351,3.2344 0,3.45121 -3.97137,6.10357 -10.60413,7.08218 -3.52786,0.5205 -3.80618,0.49394 -4.69076,-0.44765 z m 7.43775,-1.11662 c 0,-0.0866 -0.16072,-0.25682 -0.35715,-0.37822 -0.19642,-0.1214 -0.35714,-0.0505 -0.35714,0.1575 0,0.20802 0.16072,0.37822 0.35714,0.37822 0.19643,0 0.35715,-0.0709 0.35715,-0.1575 z"
       id="path83"
       transform="scale(0.26458333)" />
    <path
       style="opacity:0.503226;fill:#000000;stroke:#000000;stroke-width:0;stroke-opacity:0"
       d="m 446.99255,446.90586 c -0.4271,-0.45462 -0.77654,-0.99981 -0.77654,-1.21153 0,-0.49049 3.82857,-4.04494 5.81068,-5.39465 0.83091,-0.56581 2.03896,-1.13099 2.68455,-1.25596 0.6456,-0.12497 1.81097,-0.73925 2.58972,-1.36508 1.31532,-1.05701 1.48178,-1.10261 2.34297,-0.64171 1.24805,0.66794 2.64351,2.37531 2.64351,3.2344 0,3.45121 -3.97137,6.10357 -10.60413,7.08218 -3.52786,0.5205 -3.80618,0.49394 -4.69076,-0.44765 z m 7.43775,-1.11662 c 0,-0.0866 -0.16072,-0.25682 -0.35715,-0.37822 -0.19642,-0.1214 -0.35714,-0.0505 -0.35714,0.1575 0,0.20802 0.16072,0.37822 0.35714,0.37822 0.19643,0 0.35715,-0.0709 0.35715,-0.1575 z"
       id="path85"
       transform="scale(0.26458333)" />
    <path
       style="opacity:0.503226;fill:#000000;stroke:#000000;stroke-width:0;stroke-opacity:0"
       d="m 449.43094,447.46662 c -1.59968,-0.14044 -2.85779,-0.8886 -2.85779,-1.69944 0,-0.59853 3.84801,-4.20145 5.82906,-5.45779 0.9088,-0.57634 1.53634,-1.16392 1.39453,-1.30573 -0.14181,-0.14181 0.14519,-0.15668 0.63778,-0.0331 0.63647,0.15974 1.12714,0.009 1.6957,-0.5206 0.44004,-0.40996 0.80008,-0.64965 0.80008,-0.53265 0,0.11701 0.35719,-0.0374 0.79375,-0.34323 1.16495,-0.81596 1.79427,-0.69058 3.03552,0.60475 1.8099,1.88875 1.71386,3.39397 -0.34713,5.44045 -1.60677,1.59546 -4.50493,2.90184 -7.2821,3.28249 -0.85645,0.11739 -1.55719,0.3523 -1.55719,0.52203 0,0.16973 -0.12053,0.28052 -0.26785,0.24621 -0.14733,-0.0343 -0.99078,-0.12587 -1.87436,-0.20344 z m 4.99936,-1.87702 c 0,-0.19643 -0.16072,-0.35715 -0.35715,-0.35715 -0.19642,0 -0.35714,0.16072 -0.35714,0.35715 0,0.19642 0.16072,0.35714 0.35714,0.35714 0.19643,0 0.35715,-0.16072 0.35715,-0.35714 z"
       id="path87"
       transform="scale(0.26458333)" />
    <rect
       style="opacity:0.503226;fill:#ffffff;fill-rule:evenodd;stroke:#000000;stroke-width:0;stroke-opacity:0"
       id="rect199"
       width="5.6460671"
       height="3.8754079"
       x="117.33133"
       y="114.99272" />
    <ellipse
       style="opacity:1;fill:#000000;fill-opacity:1;fill-rule:evenodd;stroke-width:0.264583;filter:url(#filter1153)"
       id="path201"
       cx="120.1293"
       cy="117.00559"
       rx="4.0508037"
       ry="2.2300301"
       transform="matrix(0.77510557,0,0,0.71501856,27.250271,33.344421)" />
    <path
       style="fill:#000000;fill-rule:nonzero;stroke:none;stroke-width:0.140472px;stroke-linecap:butt;stroke-linejoin:miter;stroke-opacity:1"
       d="m 80.114455,146.97044 c 0.651206,1.17015 1.938869,2.87134 4.158346,3.97564 1.656306,0.8241 3.661855,1.20667 5.690359,0.91545 0.326195,-0.0443 0.650666,-0.10699 0.959745,-0.20577 0.324935,-0.10386 0.620076,-0.24365 0.878875,-0.43197 0.181923,-0.12486 0.31501,-0.25315 0.396557,-0.34528 0,0 -0.05259,-0.0465 -0.05259,-0.0465 0,0 -0.05259,-0.0465 -0.05259,-0.0465 -0.07739,0.0874 -0.194016,0.21525 -0.358609,0.34788 -0.243676,0.18501 -0.525142,0.32656 -0.84061,0.43512 -0.300273,0.10333 -0.618025,0.17228 -0.941016,0.22364 -2.011583,0.30424 -4.01041,-0.0601 -5.667846,-0.87084 -2.221676,-1.08674 -3.518722,-2.77939 -4.170617,-3.95077 z"
       id="path907"
       inkscape:path-effect="#path-effect909;#path-effect911"
       inkscape:original-d="m 80.114455,146.97044 c 3.223059,1.65464 6.562507,3.23773 9.843584,4.85635 3.281079,1.61863 1.206867,-0.43201 1.810123,-0.64825 0.603255,-0.21624 0.251838,-0.23089 0.377583,-0.34658" />
    <path
       style="fill:#000000;fill-rule:nonzero;stroke:none;stroke-width:0.140472px;stroke-linecap:butt;stroke-linejoin:miter;stroke-opacity:1"
       d="m 80.188051,149.41527 c 0.651206,1.17015 1.938869,2.87134 4.158346,3.97564 1.656306,0.8241 3.661855,1.20667 5.690359,0.91545 0.326195,-0.0443 0.650666,-0.10699 0.959745,-0.20577 0.324935,-0.10386 0.620076,-0.24365 0.878875,-0.43197 0.181923,-0.12486 0.31501,-0.25315 0.396557,-0.34528 0,0 -0.05259,-0.0465 -0.05259,-0.0465 0,0 -0.05259,-0.0465 -0.05259,-0.0465 -0.07739,0.0874 -0.194016,0.21525 -0.358609,0.34788 -0.243676,0.18501 -0.525142,0.32656 -0.84061,0.43512 -0.300273,0.10333 -0.618025,0.17228 -0.941016,0.22364 -2.011583,0.30424 -4.01041,-0.0601 -5.667846,-0.87084 -2.221676,-1.08674 -3.518722,-2.77939 -4.170617,-3.95077 z"
       id="path907-6"
       inkscape:path-effect="#path-effect967;#path-effect969"
       inkscape:original-d="m 80.188051,149.41527 c 3.223059,1.65464 6.562507,3.23773 9.843584,4.85635 3.281079,1.61863 1.206867,-0.43201 1.810123,-0.64825 0.603255,-0.21624 0.251838,-0.23089 0.377583,-0.34658" />
    <path
       style="fill:#000000;fill-rule:nonzero;stroke:none;stroke-width:0.140472px;stroke-linecap:butt;stroke-linejoin:miter;stroke-opacity:1"
       d="m 79.32614,151.8482 c 0.651206,1.17015 1.938869,2.87134 4.158346,3.97564 1.656306,0.8241 3.661855,1.20667 5.690359,0.91545 0.326195,-0.0443 0.650666,-0.10699 0.959745,-0.20577 0.324935,-0.10386 0.620076,-0.24365 0.878875,-0.43197 0.181923,-0.12486 0.31501,-0.25315 0.396557,-0.34528 0,0 -0.05259,-0.0465 -0.05259,-0.0465 0,0 -0.05259,-0.0465 -0.05259,-0.0465 -0.07739,0.0874 -0.194016,0.21525 -0.358609,0.34788 -0.243676,0.18501 -0.525142,0.32656 -0.84061,0.43512 -0.300273,0.10333 -0.618025,0.17228 -0.941016,0.22364 -2.011583,0.30424 -4.01041,-0.0601 -5.667846,-0.87084 -2.221676,-1.08674 -3.518722,-2.77939 -4.170617,-3.95077 z"
       id="path907-7"
       inkscape:path-effect="#path-effect979;#path-effect981"
       inkscape:original-d="m 79.32614,151.8482 c 3.223059,1.65464 6.562507,3.23773 9.843584,4.85635 3.281079,1.61863 1.206867,-0.43201 1.810123,-0.64825 0.603255,-0.21624 0.251838,-0.23089 0.377583,-0.34658" />
  </g>
</svg>
